<?xml version="1.0" encoding="UTF-8"?>
<svg id="Layer_2" data-name="Layer 2" xmlns="http://www.w3.org/2000/svg" xmlns:xlink="http://www.w3.org/1999/xlink" viewBox="0 0 96.01 97.48">
  <defs>
    <style>
      .cls-1 {
        fill: url(#linear-gradient);
      }

      .cls-1, .cls-2, .cls-3, .cls-4, .cls-5, .cls-6 {
        stroke-width: 0px;
      }

      .cls-2 {
        fill: url(#linear-gradient-2);
      }

      .cls-3 {
        fill: #72e128;
      }

      .cls-4 {
        fill: url(#linear-gradient-3);
      }

      .cls-5 {
        fill: #666cff;
      }

      .cls-6 {
        fill: url(#linear-gradient-4);
      }
    </style>
    <linearGradient id="linear-gradient" x1="48" y1="27.07" x2="48" y2="97.48" gradientUnits="userSpaceOnUse">
      <stop offset="0" stop-color="#fff" stop-opacity=".05"/>
      <stop offset=".44" stop-color="#4a4a4a" stop-opacity=".23"/>
      <stop offset="1" stop-color="#000" stop-opacity=".3"/>
    </linearGradient>
    <linearGradient id="linear-gradient-2" x1="49.7" y1="50.09" x2="49.7" y2="78.6" xlink:href="#linear-gradient"/>
    <linearGradient id="linear-gradient-3" x1="6.91" y1="10.77" x2="27.43" y2="31.29" xlink:href="#linear-gradient"/>
    <linearGradient id="linear-gradient-4" x1="85.69" y1="6.51" x2="68.48" y2="36.31" xlink:href="#linear-gradient"/>
  </defs>
  <g id="Layer_1-2" data-name="Layer 1">
    <g>
      <g>
        <g>
          <path class="cls-5" d="m60.64,81.23c-3.21,2.14-7.07,3.39-11.22,3.39-11.2,0-20.27-9.08-20.27-20.27s9.07-20.27,20.27-20.27,20.27,9.08,20.27,20.27c0,4.39-1.41,8.44-3.78,11.76l8.26,8.14c6.07-7.11,9.68-15.83,9.68-23.53,0-11.7-8.26-19.96-22.29-23.08v-6.96c0-.14,0-.27-.02-.41-.2-1.8-1.73-3.2-3.58-3.2-1.51,0-2.8.93-3.34,2.25-.17.42-.27.88-.27,1.36v5.86c-2.03-.18-4.15-.28-6.36-.28s-4.32.09-6.36.28v-5.86c0-.48-.1-.94-.27-1.36-.54-1.32-1.83-2.25-3.34-2.25-1.86,0-3.38,1.4-3.58,3.2-.01.13-.02.27-.02.41v6.96h0c-14.03,3.12-22.29,11.38-22.29,23.08,0,7.99,3.88,17.08,10.37,24.32,7.19,8.02,16.25,12.44,25.49,12.44h0c7.39,0,14.66-2.83,20.95-8.06l-8.31-8.19Z"/>
          <path class="cls-3" d="m49.7,50.09c-7.87,0-14.25,6.38-14.25,14.25s6.38,14.25,14.25,14.25,14.25-6.38,14.25-14.25-6.38-14.25-14.25-14.25Z"/>
        </g>
        <g>
          <path class="cls-5" d="m38.97,15.47c-3.71,8.95-9.36,15.56-18.33,18.14-5.63,2.03-10.13,7.7-14.22,14.76-.3.52-1.05.56-1.4.06C-8.69,29.1,6.93-6.16,36.49.93c.59.14.65.95.09,1.19-8.41,3.67-13.97,8.85-15.07,15.41-.11.67.42,1.29,1.1,1.3,5.15.12,10.56-1.35,15.46-4.14.52-.3,1.13.23.9.79Z"/>
          <path class="cls-5" d="m57.04,15.47c3.71,8.95,9.36,15.56,18.33,18.14,5.63,2.03,10.13,7.7,14.22,14.76.3.52,1.05.56,1.4.06,13.72-19.33-1.9-54.59-31.47-47.51-.59.14-.65.95-.09,1.19,8.41,3.67,13.97,8.85,15.07,15.41.11.67-.42,1.29-1.1,1.3-5.15.12-10.56-1.35-15.46-4.14-.52-.3-1.13.23-.9.79Z"/>
        </g>
      </g>
      <g>
        <g>
          <path class="cls-1" d="m60.64,81.23c-3.21,2.14-7.07,3.39-11.22,3.39-11.2,0-20.27-9.08-20.27-20.27s9.07-20.27,20.27-20.27,20.27,9.08,20.27,20.27c0,4.39-1.41,8.44-3.78,11.76l8.26,8.14c6.07-7.11,9.68-15.83,9.68-23.53,0-11.7-8.26-19.96-22.29-23.08v-6.96c0-.14,0-.27-.02-.41-.2-1.8-1.73-3.2-3.58-3.2-1.51,0-2.8.93-3.34,2.25-.17.42-.27.88-.27,1.36v5.86c-2.03-.18-4.15-.28-6.36-.28s-4.32.09-6.36.28v-5.86c0-.48-.1-.94-.27-1.36-.54-1.32-1.83-2.25-3.34-2.25-1.86,0-3.38,1.4-3.58,3.2-.01.13-.02.27-.02.41v6.96h0c-14.03,3.12-22.29,11.38-22.29,23.08,0,7.99,3.88,17.08,10.37,24.32,7.19,8.02,16.25,12.44,25.49,12.44h0c7.39,0,14.66-2.83,20.95-8.06l-8.31-8.19Z"/>
          <path class="cls-2" d="m49.7,50.09c-7.87,0-14.25,6.38-14.25,14.25s6.38,14.25,14.25,14.25,14.25-6.38,14.25-14.25-6.38-14.25-14.25-14.25Z"/>
        </g>
        <g>
          <path class="cls-4" d="m38.97,15.47c-3.71,8.95-9.36,15.56-18.33,18.14-5.63,2.03-10.13,7.7-14.22,14.76-.3.52-1.05.56-1.4.06C-8.69,29.1,6.93-6.16,36.49.93c.59.14.65.95.09,1.19-8.41,3.67-13.97,8.85-15.07,15.41-.11.67.42,1.29,1.1,1.3,5.15.12,10.56-1.35,15.46-4.14.52-.3,1.13.23.9.79Z"/>
          <path class="cls-6" d="m57.04,15.47c3.71,8.95,9.36,15.56,18.33,18.14,5.63,2.03,10.13,7.7,14.22,14.76.3.52,1.05.56,1.4.06,13.72-19.33-1.9-54.59-31.47-47.51-.59.14-.65.95-.09,1.19,8.41,3.67,13.97,8.85,15.07,15.41.11.67-.42,1.29-1.1,1.3-5.15.12-10.56-1.35-15.46-4.14-.52-.3-1.13.23-.9.79Z"/>
        </g>
      </g>
    </g>
  </g>
</svg>