<svg width="178" height="31" viewBox="0 0 178 31" fill="none" xmlns="http://www.w3.org/2000/svg">
<path d="M19.5802 25.834C18.5438 26.5145 17.2975 26.9121 15.9575 26.9121C12.3414 26.9121 9.4129 24.0245 9.4129 20.4659C9.4129 16.9073 12.3414 14.0198 15.9575 14.0198C19.5737 14.0198 22.5022 16.9073 22.5022 20.4659C22.5022 21.862 22.0469 23.1499 21.2817 24.2058L23.9487 26.7944C25.9085 24.5333 27.0741 21.7602 27.0741 19.3115C27.0741 15.5908 24.4071 12.964 19.8772 11.9718V9.75838C19.8772 9.71386 19.8772 9.67252 19.8708 9.628C19.8062 9.05557 19.3122 8.61035 18.7149 8.61035C18.2273 8.61035 17.8108 8.9061 17.6365 9.32588C17.5816 9.45945 17.5493 9.60574 17.5493 9.75838V11.6219C16.8939 11.5647 16.2094 11.5329 15.4958 11.5329C14.7823 11.5329 14.101 11.5615 13.4424 11.6219V9.75838C13.4424 9.60574 13.4101 9.45945 13.3552 9.32588C13.1808 8.9061 12.7643 8.61035 12.2768 8.61035C11.6762 8.61035 11.1855 9.05557 11.1209 9.628C11.1177 9.66934 11.1144 9.71386 11.1144 9.75838V11.9718C6.58453 12.964 3.9176 15.5908 3.9176 19.3115C3.9176 21.8525 5.17035 24.7432 7.2658 27.0456C9.58726 29.5961 12.5125 31.0017 15.4958 31.0017C17.8819 31.0017 20.2292 30.1017 22.26 28.4385L19.577 25.834H19.5802Z" fill="#666CFF"/>
<path d="M16.048 15.9312C13.507 15.9312 11.447 17.9601 11.447 20.4629C11.447 22.9656 13.507 24.9945 16.048 24.9945C18.589 24.9945 20.6489 22.9656 20.6489 20.4629C20.6489 17.9601 18.589 15.9312 16.048 15.9312Z" fill="#72E128"/>
<path d="M12.5835 4.9214C11.3857 7.76763 9.56144 9.8697 6.66526 10.6902C4.84749 11.3357 3.39456 13.1389 2.07401 15.3841C1.97714 15.5494 1.73499 15.5622 1.62198 15.4031C-2.80461 9.25593 2.23867 -1.95724 11.7828 0.297481C11.9733 0.342003 11.9927 0.599594 11.8119 0.675917C9.0965 1.84303 7.30132 3.49034 6.94616 5.57651C6.91065 5.78958 7.08177 5.98675 7.30132 5.98993C8.96412 6.02809 10.7109 5.56061 12.2929 4.67335C12.4608 4.57795 12.6578 4.7465 12.5835 4.92458V4.9214Z" fill="#666CFF"/>
<path d="M18.4179 4.92137C19.6157 7.76759 21.44 9.86966 24.3361 10.6901C26.1539 11.3357 27.6068 13.1388 28.9274 15.384C29.0242 15.5494 29.2664 15.5621 29.3794 15.4031C33.8092 9.2559 28.7659 -1.95728 19.2186 0.294263C19.0281 0.338785 19.0087 0.596376 19.1895 0.672699C21.9049 1.83981 23.7001 3.48712 24.0552 5.57329C24.0907 5.78636 23.9196 5.98353 23.7001 5.98671C22.0373 6.02487 20.2905 5.55739 18.7084 4.67013C18.5405 4.57473 18.3436 4.74328 18.4179 4.92137Z" fill="#666CFF"/>
<path d="M52.8555 12.5123L51.677 13.724C50.6826 12.7795 49.7172 12.3056 48.7841 12.3056C48.1803 12.3056 47.6669 12.4996 47.2407 12.8844C46.8145 13.2724 46.5982 13.7303 46.5982 14.2646C46.5982 14.713 46.7758 15.1423 47.1342 15.5526C47.4829 15.9914 48.219 16.4939 49.3459 17.0599C50.7245 17.7564 51.6576 18.4306 52.1452 19.0825C52.6263 19.744 52.8652 20.4881 52.8652 21.3118C52.8652 22.463 52.4519 23.4393 51.6286 24.2439C50.8053 25.0484 49.7721 25.4491 48.5355 25.4491C47.7057 25.4491 46.9146 25.2742 46.1591 24.9276C45.4036 24.581 44.7837 24.0912 44.2929 23.4647L45.4585 22.1641C46.4013 23.2135 47.399 23.735 48.4547 23.735C49.1877 23.735 49.814 23.4997 50.3339 23.0322C50.8537 22.5648 51.112 22.0178 51.112 21.3881C51.112 20.8634 50.9409 20.3991 50.6019 19.9952C50.2628 19.5913 49.4879 19.0857 48.2869 18.4751C46.9857 17.8295 46.1075 17.1808 45.6425 16.5289C45.1711 15.8928 44.9354 15.1614 44.9354 14.3377C44.9354 13.2629 45.31 12.3724 46.0558 11.6632C46.8016 10.9541 47.738 10.6011 48.8616 10.6011C50.1789 10.6011 51.5091 11.2371 52.8523 12.5092L52.8555 12.5123Z" fill="white"/>
<path d="M62.8904 10.604C65.0989 10.604 66.9296 11.3895 68.3857 12.9637C69.703 14.4074 70.3617 16.112 70.3617 18.0805C70.3617 20.049 69.6643 21.7695 68.2695 23.2419C66.8747 24.7143 65.0795 25.4521 62.8904 25.4521C60.7013 25.4521 58.8965 24.7143 57.5049 23.2419C56.1133 21.7695 55.4191 20.049 55.4191 18.0805C55.4191 16.112 56.0778 14.4202 57.3951 12.9764C58.8513 11.3959 60.6852 10.604 62.8904 10.604ZM62.8904 12.3817C61.3632 12.3817 60.0524 12.9414 58.9514 14.0576C57.8536 15.1739 57.3015 16.5222 57.3015 18.106C57.3015 19.13 57.5533 20.084 58.0538 20.9744C58.5542 21.8649 59.2323 22.5454 60.0879 23.0224C60.9435 23.4995 61.8766 23.738 62.8872 23.738C63.8978 23.738 64.8567 23.4995 65.7059 23.0224C66.555 22.5454 67.2298 21.8617 67.7271 20.9744C68.2243 20.084 68.4729 19.13 68.4729 18.106C68.4729 16.5254 67.924 15.177 66.823 14.0576C65.7252 12.9414 64.4111 12.3817 62.884 12.3817H62.8904Z" fill="white"/>
<path d="M87.687 13.902L86.2212 14.8052C84.9555 13.1388 83.2282 12.3056 81.0391 12.3056C79.2859 12.3056 77.8297 12.859 76.6738 13.9688C75.518 15.0787 74.94 16.4271 74.94 18.0171C74.94 19.0475 75.2048 20.0206 75.7375 20.9365C76.2703 21.8524 76.9967 22.5584 77.9234 23.0577C78.8468 23.5569 79.8864 23.805 81.0391 23.805C83.1571 23.805 84.8845 22.9813 86.2212 21.3309L87.687 22.2722C86.9993 23.2866 86.0759 24.069 84.92 24.6255C83.7641 25.1788 82.4436 25.4555 80.9616 25.4555C78.7015 25.4555 76.8256 24.7463 75.3275 23.328C73.8326 21.9096 73.0835 20.1892 73.0835 18.1603C73.0835 16.7864 73.4354 15.5112 74.1361 14.3377C74.8367 13.1643 75.7989 12.2484 77.0161 11.5933C78.2333 10.935 79.5991 10.6074 81.1198 10.6074C82.0626 10.6074 82.9763 10.7505 83.861 11.0336C84.7457 11.3166 85.498 11.6887 86.1179 12.1498C86.7378 12.6109 87.2609 13.1961 87.687 13.9084V13.902Z" fill="white"/>
<path d="M91.8619 5.4873C92.2816 5.4873 92.64 5.63359 92.9403 5.92616C93.2405 6.21874 93.3923 6.57173 93.3923 6.98197C93.3923 7.39221 93.2405 7.74838 92.9403 8.04414C92.64 8.33989 92.2784 8.48936 91.8619 8.48936C91.4454 8.48936 91.0837 8.33989 90.7899 8.04414C90.4929 7.74838 90.3444 7.39221 90.3444 6.98197C90.3444 6.57173 90.4929 6.21874 90.7899 5.92616C91.087 5.63359 91.4454 5.4873 91.8619 5.4873ZM90.9449 11.3006H92.7885V25.4395H90.9449V11.3006Z" fill="white"/>
<path d="M103.388 10.604C105.597 10.604 107.428 11.3895 108.884 12.9637C110.227 14.3979 110.898 16.1056 110.898 18.0805C110.915 22.962 110.915 25.4394 110.898 25.5157H108.948V22.3069C107.928 24.18 106.075 25.2295 103.388 25.4521C101.19 25.4521 99.3945 24.7143 98.0029 23.2419C96.6113 21.7695 95.9171 20.049 95.9171 18.0805C95.9171 16.112 96.5758 14.4202 97.8931 12.9764C99.3493 11.3959 101.183 10.604 103.388 10.604ZM103.388 12.3817C101.861 12.3817 100.55 12.9414 99.4493 14.0576C98.3516 15.1739 97.7995 16.5222 97.7995 18.106C97.7995 19.13 98.0804 20.1126 98.6422 21.0571C99.204 22.0016 100.156 22.803 101.5 23.4549C104.867 24.1927 107.263 22.6854 108.684 18.9296C108.761 17.7275 108.632 16.5763 108.29 15.476C108.044 14.9767 107.708 14.506 107.282 14.0576C106.21 12.9414 104.909 12.3817 103.382 12.3817H103.388Z" fill="white"/>
<path d="M114.198 5.83398H116.058V25.4364H114.198V5.83398Z" fill="white"/>
<path d="M133.8 13.902L132.334 14.8052C131.068 13.1388 129.341 12.3056 127.152 12.3056C125.399 12.3056 123.943 12.859 122.787 13.9688C121.631 15.0787 121.053 16.4271 121.053 18.0171C121.053 19.0475 121.318 20.0206 121.85 20.9365C122.383 21.8524 123.11 22.5584 124.036 23.0577C124.96 23.5569 125.999 23.805 127.152 23.805C129.27 23.805 130.997 22.9813 132.334 21.3309L133.8 22.2722C133.112 23.2866 132.189 24.069 131.033 24.6255C129.877 25.1788 128.556 25.4555 127.074 25.4555C124.814 25.4555 122.938 24.7463 121.44 23.328C119.945 21.9096 119.196 20.1892 119.196 18.1603C119.196 16.7864 119.548 15.5112 120.249 14.3377C120.949 13.1643 121.912 12.2484 123.129 11.5933C124.346 10.935 125.712 10.6074 127.233 10.6074C128.175 10.6074 129.089 10.7505 129.974 11.0336C130.858 11.3166 131.611 11.6887 132.231 12.1498C132.851 12.6109 133.374 13.1961 133.8 13.9084V13.902Z" fill="#666CFF"/>
<path d="M136.625 18.9681V17.2668C136.764 16.4177 136.964 15.7244 137.229 15.1933C137.839 13.7145 138.659 12.6333 139.689 11.9464C140.719 11.2595 141.575 10.916 142.253 10.916C142.76 10.916 143.299 11.0782 143.877 11.4058L142.921 12.9259C142.111 12.6333 141.307 12.8686 140.506 13.635C139.708 14.4014 139.156 15.2346 138.85 16.1346C138.624 16.9328 138.511 18.4339 138.511 20.6313V25.4143H136.625V18.9713V18.9681Z" fill="#666CFF"/>
<path d="M152.223 10.604C154.431 10.604 156.262 11.3895 157.718 12.9637C159.061 14.3979 159.733 16.1056 159.733 18.0805C159.749 22.962 159.749 25.4394 159.733 25.5157H157.783V22.3069C156.763 24.18 154.909 25.2295 152.223 25.4521C150.024 25.4521 148.229 24.7143 146.837 23.2419C145.446 21.7695 144.752 20.049 144.752 18.0805C144.752 16.112 145.41 14.4202 146.728 12.9764C148.184 11.3959 150.018 10.604 152.223 10.604ZM152.223 12.3817C150.696 12.3817 149.385 12.9414 148.284 14.0576C147.186 15.1739 146.634 16.5222 146.634 18.106C146.634 19.13 146.915 20.1126 147.477 21.0571C148.039 22.0016 148.991 22.803 150.334 23.4549C153.702 24.1927 156.097 22.6854 157.518 18.9296C157.596 17.7275 157.466 16.5763 157.124 15.476C156.879 14.9767 156.543 14.506 156.117 14.0576C155.045 12.9414 153.744 12.3817 152.217 12.3817H152.223Z" fill="#666CFF"/>
<path d="M164.47 22.6916C163.685 21.4037 163.214 20.1348 163.055 18.8882C163.055 9.94246 163.055 5.48072 163.055 5.49662H164.886V13.3834C165.661 12.4484 166.53 11.7488 167.488 11.2877C168.447 10.8297 169.5 10.5976 170.643 10.5976C172.667 10.5976 174.398 11.3226 175.838 12.776C177.278 14.2293 177.998 15.9911 177.998 18.0614C177.998 20.1316 177.275 21.8362 175.825 23.28C174.375 24.7237 172.632 25.4456 170.591 25.4456C169.422 25.4456 168.325 25.223 167.301 24.781C166.278 24.3389 165.332 23.6393 164.47 22.6853V22.6916ZM170.436 23.7093C171.473 23.7093 172.428 23.4581 173.294 22.9556C174.162 22.4531 174.853 21.7535 175.367 20.8599C175.88 19.9663 176.138 19.0122 176.138 17.9978C176.138 16.9833 175.88 16.0451 175.36 15.1293C174.84 14.2134 174.143 13.5042 173.268 13.0018C172.393 12.4993 171.457 12.2481 170.462 12.2481C169.468 12.2481 168.489 12.4993 167.582 13.0018C166.675 13.5042 165.977 14.1879 165.49 15.0498C165.002 15.9148 164.757 16.8783 164.757 17.9437C164.757 19.5846 165.306 20.9553 166.407 22.0556C167.505 23.1559 168.848 23.7061 170.436 23.7061V23.7093Z" fill="#666CFF"/>
<path d="M19.5802 25.834C18.5438 26.5145 17.2975 26.9121 15.9575 26.9121C12.3414 26.9121 9.4129 24.0245 9.4129 20.4659C9.4129 16.9073 12.3414 14.0198 15.9575 14.0198C19.5737 14.0198 22.5022 16.9073 22.5022 20.4659C22.5022 21.862 22.0469 23.1499 21.2817 24.2058L23.9487 26.7944C25.9085 24.5333 27.0741 21.7602 27.0741 19.3115C27.0741 15.5908 24.4071 12.964 19.8772 11.9718V9.75838C19.8772 9.71386 19.8772 9.67252 19.8708 9.628C19.8062 9.05557 19.3122 8.61035 18.7149 8.61035C18.2273 8.61035 17.8108 8.9061 17.6365 9.32588C17.5816 9.45945 17.5493 9.60574 17.5493 9.75838V11.6219C16.8939 11.5647 16.2094 11.5329 15.4958 11.5329C14.7823 11.5329 14.101 11.5615 13.4424 11.6219V9.75838C13.4424 9.60574 13.4101 9.45945 13.3552 9.32588C13.1808 8.9061 12.7643 8.61035 12.2768 8.61035C11.6762 8.61035 11.1855 9.05557 11.1209 9.628C11.1177 9.66934 11.1144 9.71386 11.1144 9.75838V11.9718C6.58453 12.964 3.9176 15.5908 3.9176 19.3115C3.9176 21.8525 5.17035 24.7432 7.2658 27.0456C9.58726 29.5961 12.5125 31.0017 15.4958 31.0017C17.8819 31.0017 20.2292 30.1017 22.26 28.4385L19.577 25.834H19.5802Z" fill="url(#paint0_linear_49_4888)"/>
<path d="M16.048 15.9312C13.507 15.9312 11.447 17.9601 11.447 20.4629C11.447 22.9656 13.507 24.9945 16.048 24.9945C18.589 24.9945 20.6489 22.9656 20.6489 20.4629C20.6489 17.9601 18.589 15.9312 16.048 15.9312Z" fill="url(#paint1_linear_49_4888)"/>
<path d="M12.5835 4.9214C11.3857 7.76763 9.56144 9.8697 6.66526 10.6902C4.84749 11.3357 3.39456 13.1389 2.07401 15.3841C1.97714 15.5494 1.73499 15.5622 1.62198 15.4031C-2.80461 9.25593 2.23867 -1.95724 11.7828 0.297481C11.9733 0.342003 11.9927 0.599594 11.8119 0.675917C9.0965 1.84303 7.30132 3.49034 6.94616 5.57651C6.91065 5.78958 7.08177 5.98675 7.30132 5.98993C8.96412 6.02809 10.7109 5.56061 12.2929 4.67335C12.4608 4.57795 12.6578 4.7465 12.5835 4.92458V4.9214Z" fill="url(#paint2_linear_49_4888)"/>
<path d="M18.4179 4.92137C19.6157 7.76759 21.44 9.86966 24.3361 10.6901C26.1539 11.3357 27.6068 13.1388 28.9274 15.384C29.0242 15.5494 29.2664 15.5621 29.3794 15.4031C33.8092 9.2559 28.7659 -1.95728 19.2186 0.294263C19.0281 0.338785 19.0087 0.596376 19.1895 0.672699C21.9049 1.83981 23.7001 3.48712 24.0552 5.57329C24.0907 5.78636 23.9196 5.98353 23.7001 5.98671C22.0373 6.02487 20.2905 5.55739 18.7084 4.67013C18.5405 4.57473 18.3436 4.74328 18.4179 4.92137Z" fill="url(#paint3_linear_49_4888)"/>
<defs>
<linearGradient id="paint0_linear_49_4888" x1="15.4991" y1="8.61035" x2="15.4991" y2="31.0017" gradientUnits="userSpaceOnUse">
<stop stop-color="white" stop-opacity="0.05"/>
<stop offset="0.44" stop-color="#4A4A4A" stop-opacity="0.23"/>
<stop offset="1" stop-opacity="0.3"/>
</linearGradient>
<linearGradient id="paint1_linear_49_4888" x1="16.048" y1="15.9312" x2="16.048" y2="24.9977" gradientUnits="userSpaceOnUse">
<stop stop-color="white" stop-opacity="0.05"/>
<stop offset="0.44" stop-color="#4A4A4A" stop-opacity="0.23"/>
<stop offset="1" stop-opacity="0.3"/>
</linearGradient>
<linearGradient id="paint2_linear_49_4888" x1="2.23221" y1="3.42674" x2="8.75711" y2="10.0513" gradientUnits="userSpaceOnUse">
<stop stop-color="white" stop-opacity="0.05"/>
<stop offset="0.44" stop-color="#4A4A4A" stop-opacity="0.23"/>
<stop offset="1" stop-opacity="0.3"/>
</linearGradient>
<linearGradient id="paint3_linear_49_4888" x1="27.6682" y1="2.07196" x2="22.2369" y2="11.6201" gradientUnits="userSpaceOnUse">
<stop stop-color="white" stop-opacity="0.05"/>
<stop offset="0.44" stop-color="#4A4A4A" stop-opacity="0.23"/>
<stop offset="1" stop-opacity="0.3"/>
</linearGradient>
</defs>
</svg>
